<mxfile host="app.diagrams.net" modified="2022-08-26T15:53:21.246Z" agent="5.0 (Windows)" etag="r-E3m-JMel58ybsMu3lW" version="20.2.7" type="github">
  <diagram id="C5RBs43oDa-KdzZeNtuy" name="Page-1">
    <mxGraphModel dx="1038" dy="632" grid="1" gridSize="10" guides="1" tooltips="1" connect="1" arrows="1" fold="1" page="1" pageScale="1" pageWidth="827" pageHeight="1169" math="0" shadow="0">
      <root>
        <mxCell id="WIyWlLk6GJQsqaUBKTNV-0" />
        <mxCell id="WIyWlLk6GJQsqaUBKTNV-1" parent="WIyWlLk6GJQsqaUBKTNV-0" />
        <mxCell id="zP8aXsK4JdXw15GKPd17-0" value="WebApp" style="rounded=1;whiteSpace=wrap;html=1;" vertex="1" parent="WIyWlLk6GJQsqaUBKTNV-1">
          <mxGeometry x="460" y="100" width="120" height="60" as="geometry" />
        </mxCell>
        <mxCell id="zP8aXsK4JdXw15GKPd17-1" value="Сайт" style="rounded=1;whiteSpace=wrap;html=1;" vertex="1" parent="WIyWlLk6GJQsqaUBKTNV-1">
          <mxGeometry x="220" y="100" width="120" height="60" as="geometry" />
        </mxCell>
        <mxCell id="zP8aXsK4JdXw15GKPd17-25" style="edgeStyle=orthogonalEdgeStyle;rounded=0;orthogonalLoop=1;jettySize=auto;html=1;entryX=0.535;entryY=0.006;entryDx=0;entryDy=0;entryPerimeter=0;" edge="1" parent="WIyWlLk6GJQsqaUBKTNV-1" source="zP8aXsK4JdXw15GKPd17-2" target="zP8aXsK4JdXw15GKPd17-20">
          <mxGeometry relative="1" as="geometry" />
        </mxCell>
        <mxCell id="zP8aXsK4JdXw15GKPd17-2" value="&lt;div&gt;Сервис Блюд &lt;br&gt;&lt;/div&gt;&lt;div&gt;CRUD&lt;br&gt; &lt;/div&gt;" style="rounded=1;whiteSpace=wrap;html=1;" vertex="1" parent="WIyWlLk6GJQsqaUBKTNV-1">
          <mxGeometry x="60" y="350" width="120" height="60" as="geometry" />
        </mxCell>
        <mxCell id="zP8aXsK4JdXw15GKPd17-3" value="Сервис Заказов" style="rounded=1;whiteSpace=wrap;html=1;" vertex="1" parent="WIyWlLk6GJQsqaUBKTNV-1">
          <mxGeometry x="200" y="350" width="120" height="60" as="geometry" />
        </mxCell>
        <mxCell id="zP8aXsK4JdXw15GKPd17-4" value="&lt;div&gt;Курьерская&lt;/div&gt;&lt;div&gt;доставка&lt;br&gt;&lt;/div&gt;" style="rounded=1;whiteSpace=wrap;html=1;" vertex="1" parent="WIyWlLk6GJQsqaUBKTNV-1">
          <mxGeometry x="340" y="350" width="120" height="60" as="geometry" />
        </mxCell>
        <mxCell id="zP8aXsK4JdXw15GKPd17-5" value="&lt;div&gt;Feedback&lt;/div&gt;&lt;div&gt;Service&lt;br&gt;&lt;/div&gt;" style="rounded=1;whiteSpace=wrap;html=1;" vertex="1" parent="WIyWlLk6GJQsqaUBKTNV-1">
          <mxGeometry x="480" y="350" width="120" height="60" as="geometry" />
        </mxCell>
        <mxCell id="zP8aXsK4JdXw15GKPd17-6" value="&lt;div&gt;Сервис&lt;/div&gt;&lt;div&gt;финансов&lt;br&gt;&lt;/div&gt;" style="rounded=1;whiteSpace=wrap;html=1;" vertex="1" parent="WIyWlLk6GJQsqaUBKTNV-1">
          <mxGeometry x="630" y="350" width="120" height="60" as="geometry" />
        </mxCell>
        <mxCell id="zP8aXsK4JdXw15GKPd17-10" value="" style="endArrow=classic;html=1;rounded=0;exitX=0.092;exitY=1.033;exitDx=0;exitDy=0;exitPerimeter=0;entryX=0.125;entryY=-0.083;entryDx=0;entryDy=0;entryPerimeter=0;" edge="1" parent="WIyWlLk6GJQsqaUBKTNV-1" source="zP8aXsK4JdXw15GKPd17-1" target="zP8aXsK4JdXw15GKPd17-2">
          <mxGeometry width="50" height="50" relative="1" as="geometry">
            <mxPoint x="360" y="320" as="sourcePoint" />
            <mxPoint x="410" y="270" as="targetPoint" />
          </mxGeometry>
        </mxCell>
        <mxCell id="zP8aXsK4JdXw15GKPd17-11" value="" style="endArrow=classic;html=1;rounded=0;entryX=0.75;entryY=0;entryDx=0;entryDy=0;" edge="1" parent="WIyWlLk6GJQsqaUBKTNV-1" source="zP8aXsK4JdXw15GKPd17-0" target="zP8aXsK4JdXw15GKPd17-2">
          <mxGeometry width="50" height="50" relative="1" as="geometry">
            <mxPoint x="360" y="320" as="sourcePoint" />
            <mxPoint x="410" y="270" as="targetPoint" />
          </mxGeometry>
        </mxCell>
        <mxCell id="zP8aXsK4JdXw15GKPd17-12" value="" style="endArrow=classic;html=1;rounded=0;entryX=0.25;entryY=0;entryDx=0;entryDy=0;exitX=0.25;exitY=1;exitDx=0;exitDy=0;" edge="1" parent="WIyWlLk6GJQsqaUBKTNV-1" source="zP8aXsK4JdXw15GKPd17-1" target="zP8aXsK4JdXw15GKPd17-3">
          <mxGeometry width="50" height="50" relative="1" as="geometry">
            <mxPoint x="479.5454545454545" y="170" as="sourcePoint" />
            <mxPoint x="160" y="360" as="targetPoint" />
          </mxGeometry>
        </mxCell>
        <mxCell id="zP8aXsK4JdXw15GKPd17-13" value="" style="endArrow=classic;html=1;rounded=0;entryX=0.325;entryY=-0.033;entryDx=0;entryDy=0;exitX=0.392;exitY=0.983;exitDx=0;exitDy=0;exitPerimeter=0;entryPerimeter=0;" edge="1" parent="WIyWlLk6GJQsqaUBKTNV-1" source="zP8aXsK4JdXw15GKPd17-1" target="zP8aXsK4JdXw15GKPd17-4">
          <mxGeometry width="50" height="50" relative="1" as="geometry">
            <mxPoint x="260" y="170" as="sourcePoint" />
            <mxPoint x="240" y="360" as="targetPoint" />
          </mxGeometry>
        </mxCell>
        <mxCell id="zP8aXsK4JdXw15GKPd17-14" value="" style="endArrow=classic;html=1;rounded=0;exitX=0.75;exitY=1;exitDx=0;exitDy=0;" edge="1" parent="WIyWlLk6GJQsqaUBKTNV-1" source="zP8aXsK4JdXw15GKPd17-1" target="zP8aXsK4JdXw15GKPd17-5">
          <mxGeometry width="50" height="50" relative="1" as="geometry">
            <mxPoint x="277.03999999999996" y="168.98000000000002" as="sourcePoint" />
            <mxPoint x="389" y="358.02" as="targetPoint" />
          </mxGeometry>
        </mxCell>
        <mxCell id="zP8aXsK4JdXw15GKPd17-15" value="" style="endArrow=classic;html=1;rounded=0;exitX=1;exitY=1;exitDx=0;exitDy=0;entryX=0.4;entryY=-0.017;entryDx=0;entryDy=0;entryPerimeter=0;" edge="1" parent="WIyWlLk6GJQsqaUBKTNV-1" source="zP8aXsK4JdXw15GKPd17-1" target="zP8aXsK4JdXw15GKPd17-6">
          <mxGeometry width="50" height="50" relative="1" as="geometry">
            <mxPoint x="320" y="170" as="sourcePoint" />
            <mxPoint x="518.6363636363637" y="360" as="targetPoint" />
          </mxGeometry>
        </mxCell>
        <mxCell id="zP8aXsK4JdXw15GKPd17-16" value="" style="endArrow=classic;html=1;rounded=0;exitX=0.5;exitY=1;exitDx=0;exitDy=0;" edge="1" parent="WIyWlLk6GJQsqaUBKTNV-1" source="zP8aXsK4JdXw15GKPd17-0" target="zP8aXsK4JdXw15GKPd17-3">
          <mxGeometry width="50" height="50" relative="1" as="geometry">
            <mxPoint x="479.5454545454545" y="170" as="sourcePoint" />
            <mxPoint x="160" y="360" as="targetPoint" />
          </mxGeometry>
        </mxCell>
        <mxCell id="zP8aXsK4JdXw15GKPd17-17" value="" style="endArrow=classic;html=1;rounded=0;exitX=0.5;exitY=1;exitDx=0;exitDy=0;entryX=0.5;entryY=0;entryDx=0;entryDy=0;" edge="1" parent="WIyWlLk6GJQsqaUBKTNV-1" source="zP8aXsK4JdXw15GKPd17-0" target="zP8aXsK4JdXw15GKPd17-4">
          <mxGeometry width="50" height="50" relative="1" as="geometry">
            <mxPoint x="530" y="170" as="sourcePoint" />
            <mxPoint x="305.4545454545455" y="360" as="targetPoint" />
          </mxGeometry>
        </mxCell>
        <mxCell id="zP8aXsK4JdXw15GKPd17-18" value="" style="endArrow=classic;html=1;rounded=0;exitX=0.5;exitY=1;exitDx=0;exitDy=0;entryX=0.425;entryY=0.033;entryDx=0;entryDy=0;entryPerimeter=0;" edge="1" parent="WIyWlLk6GJQsqaUBKTNV-1" source="zP8aXsK4JdXw15GKPd17-0" target="zP8aXsK4JdXw15GKPd17-5">
          <mxGeometry width="50" height="50" relative="1" as="geometry">
            <mxPoint x="530" y="170" as="sourcePoint" />
            <mxPoint x="410" y="360" as="targetPoint" />
          </mxGeometry>
        </mxCell>
        <mxCell id="zP8aXsK4JdXw15GKPd17-19" value="" style="endArrow=classic;html=1;rounded=0;exitX=0.5;exitY=1;exitDx=0;exitDy=0;entryX=0.75;entryY=0;entryDx=0;entryDy=0;" edge="1" parent="WIyWlLk6GJQsqaUBKTNV-1" source="zP8aXsK4JdXw15GKPd17-0" target="zP8aXsK4JdXw15GKPd17-6">
          <mxGeometry width="50" height="50" relative="1" as="geometry">
            <mxPoint x="530" y="170" as="sourcePoint" />
            <mxPoint x="541" y="361.98" as="targetPoint" />
          </mxGeometry>
        </mxCell>
        <mxCell id="zP8aXsK4JdXw15GKPd17-20" value="DB" style="rounded=1;whiteSpace=wrap;html=1;" vertex="1" parent="WIyWlLk6GJQsqaUBKTNV-1">
          <mxGeometry x="55" y="470" width="120" height="60" as="geometry" />
        </mxCell>
        <mxCell id="zP8aXsK4JdXw15GKPd17-21" value="DB" style="rounded=1;whiteSpace=wrap;html=1;" vertex="1" parent="WIyWlLk6GJQsqaUBKTNV-1">
          <mxGeometry x="195" y="470" width="120" height="60" as="geometry" />
        </mxCell>
        <mxCell id="zP8aXsK4JdXw15GKPd17-22" value="DB" style="rounded=1;whiteSpace=wrap;html=1;" vertex="1" parent="WIyWlLk6GJQsqaUBKTNV-1">
          <mxGeometry x="335" y="470" width="120" height="60" as="geometry" />
        </mxCell>
        <mxCell id="zP8aXsK4JdXw15GKPd17-23" value="DB" style="rounded=1;whiteSpace=wrap;html=1;" vertex="1" parent="WIyWlLk6GJQsqaUBKTNV-1">
          <mxGeometry x="475" y="470" width="120" height="60" as="geometry" />
        </mxCell>
        <mxCell id="zP8aXsK4JdXw15GKPd17-24" value="DB" style="rounded=1;whiteSpace=wrap;html=1;" vertex="1" parent="WIyWlLk6GJQsqaUBKTNV-1">
          <mxGeometry x="625" y="470" width="120" height="60" as="geometry" />
        </mxCell>
        <mxCell id="zP8aXsK4JdXw15GKPd17-28" value="" style="endArrow=classic;html=1;rounded=0;exitX=0.5;exitY=1;exitDx=0;exitDy=0;" edge="1" parent="WIyWlLk6GJQsqaUBKTNV-1" source="zP8aXsK4JdXw15GKPd17-3">
          <mxGeometry width="50" height="50" relative="1" as="geometry">
            <mxPoint x="290" y="370" as="sourcePoint" />
            <mxPoint x="260" y="470" as="targetPoint" />
          </mxGeometry>
        </mxCell>
        <mxCell id="zP8aXsK4JdXw15GKPd17-29" value="" style="endArrow=classic;html=1;rounded=0;exitX=0.5;exitY=1;exitDx=0;exitDy=0;" edge="1" parent="WIyWlLk6GJQsqaUBKTNV-1" source="zP8aXsK4JdXw15GKPd17-4" target="zP8aXsK4JdXw15GKPd17-22">
          <mxGeometry width="50" height="50" relative="1" as="geometry">
            <mxPoint x="270" y="420" as="sourcePoint" />
            <mxPoint x="270" y="480" as="targetPoint" />
          </mxGeometry>
        </mxCell>
        <mxCell id="zP8aXsK4JdXw15GKPd17-30" value="" style="endArrow=classic;html=1;rounded=0;exitX=0.5;exitY=1;exitDx=0;exitDy=0;entryX=0.5;entryY=0;entryDx=0;entryDy=0;" edge="1" parent="WIyWlLk6GJQsqaUBKTNV-1" source="zP8aXsK4JdXw15GKPd17-5" target="zP8aXsK4JdXw15GKPd17-23">
          <mxGeometry width="50" height="50" relative="1" as="geometry">
            <mxPoint x="410" y="420" as="sourcePoint" />
            <mxPoint x="406.66666666666674" y="480" as="targetPoint" />
          </mxGeometry>
        </mxCell>
        <mxCell id="zP8aXsK4JdXw15GKPd17-31" value="" style="endArrow=classic;html=1;rounded=0;exitX=0.5;exitY=1;exitDx=0;exitDy=0;" edge="1" parent="WIyWlLk6GJQsqaUBKTNV-1" source="zP8aXsK4JdXw15GKPd17-6" target="zP8aXsK4JdXw15GKPd17-24">
          <mxGeometry width="50" height="50" relative="1" as="geometry">
            <mxPoint x="550" y="420" as="sourcePoint" />
            <mxPoint x="545" y="480" as="targetPoint" />
          </mxGeometry>
        </mxCell>
      </root>
    </mxGraphModel>
  </diagram>
</mxfile>
